<?xml version="1.0" encoding="UTF-8"?>
<svg id="Layer_1" data-name="Layer 1" xmlns="http://www.w3.org/2000/svg" viewBox="0 0 150 200">
  <defs>
    <style>
      .cls-1 {
        fill: #789a3d;
      }
    </style>
  </defs>
  <path class="cls-1" d="M130.17,73.6c2.19-4.33,2.78-9.29,1.46-13.75-1.54-5.22-5.73-9.3-10.63-10.91.9-7.67-2.1-16.17-8.26-22.53-5.51-5.68-14.05-13.12-23.47-16.27-15.77-5.27-35.91,1.63-46.86,16.05-3.44,4.53-5.09,9.81-6.15,13.9-1.95,7.54-1.5,13.72-.13,18.54-4.42.68-10.21,4.89-15.54,11.3-5.87,7.07-10.28,15.73-12.41,24.39-7.43,30.16,13.42,50.35,26.51,59.7,14.42,10.3,32.75,8.87,44.62,2.86-.02,2.56-.04,4.62-.05,6.35-.08,7.78-.1,9.87.5,24.37.1,2.42,2.09,4.32,4.49,4.32.06,0,.12,0,.19,0,2.48-.1,4.41-2.2,4.31-4.68-.59-14.27-.57-16.32-.49-23.91.04-3.61.08-8.56.08-16.67,0-2.49-2.01-4.5-4.5-4.5-2.25,0-4.11,1.65-4.45,3.81-.87,1.1-4.9,4.09-12.25,5.71-5.78,1.27-17.01,2.32-27.22-4.97-24.86-17.76-26.23-37.12-23-50.23,4.3-17.44,17.12-28.47,20.59-28.95.85-.12,1.6-.47,2.21-.98,2.07,3.17,4.08,4.85,4.29,5.01,1.92,1.55,4.71,1.25,6.28-.66,1.57-1.9,1.29-4.73-.59-6.32-.35-.3-8.55-7.42-4.73-22.24.84-3.28,2.13-7.45,4.6-10.71,8.58-11.3,24.76-17,36.83-12.96,7.7,2.57,15.05,9.03,19.87,14,6.03,6.22,6.82,13.9,4.99,18.4-.6,1.47-.38,3.15.58,4.42.96,1.27,2.52,1.93,4.1,1.75,2.9-.33,6.13,2.03,7.05,5.16.96,3.25-.23,7.28-2.96,10.05-1.12,1.14-1.56,2.78-1.15,4.32.41,1.54,1.61,2.75,3.15,3.18,5.02,1.39,11,5.16,10.99,15.24,0,6.4-1.15,18.21-8.76,25.51-6.19,5.93-15.24,7.9-26.43,5.8.12-.18.23-.36.33-.56,6.08-12.22,3.9-24.67-6.16-35.04-7.62-7.86-17.72-12.49-26.64-16.57-1.41-.65-3.06-.52-4.36.34-1.3.86-2.06,2.32-2.02,3.88.23,8.51,1.1,17.07,2.58,25.46.73,4.12,1.73,8.86,4.4,13.01,4.84,7.54,15.58,14.37,23.16,16.62,6.45,1.92,12.09,2.71,17.03,2.71,11.8,0,19.53-4.54,24.33-9.14,9.52-9.12,11.52-22.44,11.53-32,.01-12.34-6.33-18.54-11.87-21.59ZM90.11,121.91c-.38.76-.52,1.57-.46,2.35-6.14-2.44-13.26-7.73-16.1-12.15-1.77-2.75-2.51-6.31-3.11-9.71-.98-5.53-1.68-11.14-2.08-16.76,6.33,3.09,12.43,6.59,17.19,11.5,5.09,5.25,10.01,13.81,4.56,24.76Z"/>
</svg>